<svg width="242" height="200" viewBox="0 0 242 200" fill="none" xmlns="http://www.w3.org/2000/svg">
<path d="M31.136 83.8789L116.171 30.2098L201.207 83.8789V162.183H31.136V83.8789V83.8789Z" fill="#E6E7E8"/>
<path fill-rule="evenodd" clip-rule="evenodd" d="M30.742 162.183C30.742 162.401 30.9184 162.577 31.1359 162.577H201.206C201.421 162.595 201.611 162.437 201.632 162.223V83.9183C201.631 83.7826 201.56 83.6571 201.443 83.5878L116.376 29.9108C116.248 29.8329 116.087 29.8329 115.958 29.9108L30.9232 83.5485C30.8082 83.6185 30.7392 83.7444 30.742 83.8789V162.183ZM200.852 161.79H31.5061V84.0993L116.171 30.6977L200.852 84.0993V161.79Z" fill="#231F20"/>
<path d="M136.887 62.8C139.714 58.1341 140.431 52.4612 140.171 47.0163C139.983 41.0594 138.41 35.2278 135.579 29.9817C134.429 27.7287 132.741 25.7938 130.664 24.348C128.112 22.7744 126.372 23.8366 123.875 23.4117C121.764 23.0498 119.558 21.5469 117.219 21.1614C111.822 20.2397 106.277 21.3983 101.702 24.4031C93.6995 29.8086 90.0054 40.1395 81.7351 45.1594C73.6301 50.0535 63.2567 48.5821 54.1671 51.2888C50.3304 52.4374 46.7557 54.3245 43.644 56.8438C41.4944 58.4877 39.7353 60.5861 38.4928 62.9888C36.3582 67.4422 36.9175 72.7454 38.4928 77.4427C40.0681 82.2738 42.7303 86.8846 46.8577 89.8824C50.3155 92.3766 54.5609 93.5254 58.7591 94.2807C64.4696 95.3115 70.3849 95.697 76.0876 94.4617C80.2963 93.6132 84.219 91.7068 87.4849 88.9225C88.887 87.6714 89.6589 85.964 90.9664 84.7208C92.7701 83.0134 95.582 81.967 97.693 80.6608C100.993 78.6072 104.301 76.4199 108.066 75.4442C117.629 72.9579 131.121 72.2812 136.887 62.8Z" fill="white"/>
<path fill-rule="evenodd" clip-rule="evenodd" d="M58.6725 94.6662C61.9035 95.2769 65.1827 95.5981 68.4709 95.6261C71.053 95.6557 73.6306 95.4051 76.1585 94.8786C80.4532 94.0142 84.4521 92.0575 87.7685 89.1978C88.4871 88.5164 89.1265 87.7562 89.6746 86.9317C90.1381 86.2364 90.6655 85.5858 91.2499 84.9883C92.5414 83.9 93.9749 82.9921 95.5112 82.2895C96.3382 81.8646 97.1259 81.4319 97.9135 80.9676L98.7012 80.4562L98.7657 80.416C101.731 78.5717 104.783 76.6732 108.153 75.8061C109.96 75.3343 111.888 74.9408 113.931 74.5241L114.242 74.4606L114.242 74.4604C122.796 72.7137 132.468 70.7387 137.194 63.0124C139.746 58.8343 140.841 53.484 140.534 47.032C140.352 41.0155 138.764 35.125 135.894 29.8321C134.721 27.5243 132.988 25.5469 130.853 24.0804C129.508 23.2502 127.913 22.9187 126.348 23.1441C125.545 23.2191 124.736 23.2006 123.938 23.089C122.882 22.8515 121.854 22.5006 120.874 22.0426C119.721 21.4817 118.505 21.0642 117.25 20.7994C111.767 19.8771 106.137 21.0665 101.497 24.1276C97.5906 26.7871 94.6605 30.6347 91.8328 34.3563L91.8048 34.3931C88.8283 38.3079 85.7547 42.3505 81.546 44.8919C76.7098 47.811 71.1569 48.4247 65.2809 49.0699C61.4955 49.3784 57.7447 50.0208 54.0726 50.9897C50.1924 52.1505 46.5773 54.0591 43.4314 56.6076C41.2317 58.2856 39.4387 60.437 38.1856 62.9022C35.7675 67.8907 36.8387 73.6895 38.1305 77.6236C39.9421 83.1314 42.8643 87.514 46.6214 90.2128C50.3785 92.9116 55.0335 94.0131 58.6725 94.6662ZM101.907 24.765C105.377 22.4559 109.458 21.234 113.627 21.2557C114.829 21.2649 116.028 21.3755 117.211 21.5862C118.398 21.8337 119.551 22.222 120.645 22.7428C121.672 23.2272 122.75 23.5941 123.859 23.8365C124.712 23.9566 125.576 23.9803 126.435 23.9073C127.848 23.6719 129.298 23.9511 130.522 24.6941C132.551 26.1049 134.197 27.9976 135.311 30.2019C138.126 35.3953 139.683 41.1759 139.856 47.0792C140.155 53.3895 139.069 58.6298 136.627 62.6583C132.09 70.1174 122.559 72.0608 114.139 73.7682C111.957 74.2088 109.941 74.6259 108.019 75.1216C104.533 76.0059 101.428 77.9412 98.4265 79.8124L98.3782 79.8425L97.5433 80.3618C96.8108 80.8103 96.0231 81.2194 95.1803 81.6522C93.5827 82.3843 92.0933 83.3321 90.7537 84.469C90.1302 85.0956 89.5684 85.7807 89.076 86.5147C88.5567 87.2956 87.9517 88.0161 87.2723 88.6628C84.0494 91.4372 80.1645 93.3343 75.9931 94.1705C71.0702 95.2406 65.4621 95.1776 58.83 93.9895C55.2698 93.3443 50.6857 92.2507 47.0703 89.6463C43.455 87.0419 40.6116 82.8088 38.8472 77.3876C37.5791 73.5715 36.563 67.9929 38.8472 63.2248C40.0628 60.8671 41.7905 58.8106 43.904 57.2056C46.977 54.7101 50.509 52.8391 54.301 51.6979C57.9289 50.7406 61.6351 50.1087 65.3755 49.8095L65.4295 49.8035C71.0918 49.1759 76.9619 48.5253 81.9162 45.5292C86.2467 42.9227 89.3694 38.8121 92.3879 34.8389L92.4078 34.8127L92.4486 34.759C95.2321 31.1012 98.1054 27.3253 101.907 24.765Z" fill="#231F20"/>
<path d="M169.023 55.0891L164.88 70.6682L174.859 72.4464L180.546 51.6349C180.546 51.6349 171.677 44.8525 170.307 44.8053C168.936 44.7581 169.023 55.0891 169.023 55.0891Z" fill="white"/>
<path fill-rule="evenodd" clip-rule="evenodd" d="M174.789 72.8398H174.859C175.025 72.8376 175.171 72.73 175.222 72.5723L180.917 51.7609C180.957 51.6061 180.901 51.4422 180.775 51.3439C179.27 50.203 171.725 44.4828 170.315 44.4356C170.119 44.4279 169.929 44.5054 169.795 44.648C168.629 45.7732 168.629 53.4211 168.629 55.0891L164.518 70.5974C164.487 70.7032 164.503 70.817 164.561 70.9102C164.62 71.0034 164.716 71.0671 164.825 71.0852L174.789 72.8398ZM174.592 71.9979L165.408 70.3771L169.44 55.215C169.445 55.1811 169.445 55.1467 169.44 55.1127C169.409 50.7065 169.755 45.6158 170.315 45.1988C171.071 45.2224 175.844 48.5428 180.105 51.7845L174.592 71.9979Z" fill="#231F20"/>
<path d="M158.24 44.8997C158.24 44.8997 159.65 48.047 161.682 48.5585C163.714 49.0699 168.133 46.8904 168.645 47.1737C169.157 47.4569 180.814 56.1749 181.948 56.4345C183.083 56.6942 185.17 53.9482 186.06 50.6829C186.06 50.6829 174.718 42.9563 173.977 42.138C173.237 41.3197 172.355 36.4257 171.252 34.6317L158.24 44.8997Z" fill="white"/>
<path fill-rule="evenodd" clip-rule="evenodd" d="M181.822 56.8516C181.904 56.8593 181.985 56.8593 182.067 56.8516C183.602 56.8516 185.611 53.7201 186.422 50.856C186.47 50.6952 186.406 50.5221 186.265 50.4312C181.72 47.3311 174.773 42.5157 174.253 41.9414C173.768 40.969 173.403 39.9412 173.166 38.8806C172.802 37.3668 172.274 35.8972 171.591 34.498C171.529 34.4048 171.433 34.3398 171.323 34.317C171.212 34.2988 171.098 34.3273 171.008 34.3957L158.019 44.6244C157.877 44.7334 157.831 44.9274 157.909 45.0886C157.91 45.0908 157.912 45.0938 157.913 45.0976C158.02 45.3255 159.457 48.4028 161.611 48.9755C162.974 49.3355 165.209 48.5982 166.853 48.0561L166.881 48.0471C167.068 47.9816 167.27 47.9021 167.465 47.8253C167.927 47.6439 168.351 47.4772 168.456 47.5435C168.605 47.6379 169.818 48.5113 171.213 49.5342C177.396 54.0427 181.113 56.6785 181.822 56.8516ZM168.834 46.8275C168.734 46.7767 168.623 46.7523 168.511 46.7567C167.854 46.8352 167.211 46.9992 166.597 47.2445L166.58 47.2503C165.122 47.7303 162.922 48.455 161.777 48.1572C160.304 47.7874 159.114 45.7496 158.728 45.01L171.102 35.2298C171.622 36.4639 172.051 37.734 172.386 39.0301C172.914 40.8241 173.253 41.9571 173.654 42.3977C174.363 43.1924 183.658 49.5499 185.572 50.8482C184.619 54.082 182.744 56.2536 182.004 56.0569C181.369 55.8885 176.558 52.4013 173.21 49.9751C172.649 49.5685 172.13 49.1918 171.677 48.8654C171.463 48.7093 171.262 48.5631 171.074 48.4266C169.643 47.3863 168.98 46.904 168.834 46.8275Z" fill="#231F20"/>
<path d="M170.638 37.5666C170.545 38.3984 170.701 39.2391 171.087 39.9821C171.725 41.123 174.552 42.6416 174.552 42.6416L176.522 38.7075L172.662 35.9221L170.638 37.5666Z" fill="#231F20"/>
<path fill-rule="evenodd" clip-rule="evenodd" d="M174.371 42.9878C174.426 43.0191 174.489 43.0354 174.552 43.035C174.593 43.0325 174.634 43.0218 174.67 43.0035C174.773 42.9726 174.858 42.9017 174.907 42.8068L176.876 38.8727C176.957 38.701 176.904 38.4957 176.75 38.3849L172.898 35.5995C172.755 35.4865 172.553 35.4865 172.41 35.5995L170.386 37.2676C170.311 37.3289 170.264 37.4161 170.252 37.5115C170.148 38.4276 170.32 39.3538 170.748 40.1709C171.417 41.3748 174.064 42.8304 174.371 42.9878ZM171.433 39.7933C171.112 39.1728 170.967 38.476 171.016 37.779L172.678 36.4021L176.017 38.8176L174.387 42.1065C173.473 41.5794 171.843 40.5801 171.433 39.7933Z" fill="#231F20"/>
<path d="M182.988 48.5978C182.988 48.5978 184.02 45.3482 182.2 45.12C182.167 44.5384 181.832 44.0164 181.317 43.7431C180.802 43.4698 180.181 43.4847 179.68 43.7824C179.68 43.7824 179.097 41.3669 177.191 41.8547C175.285 42.3426 173.773 46.8983 174.04 48.047C174.308 49.1958 175.789 48.4955 176.537 47.4176C176.537 47.4176 175.568 49.2115 176.214 49.6836C177.159 50.376 178.152 49.1486 178.955 48.2516C178.955 48.2516 177.766 50.3524 179.515 50.5412C180.861 50.6907 182.114 47.9762 182.114 47.9762L182.988 48.5978Z" fill="white"/>
<path fill-rule="evenodd" clip-rule="evenodd" d="M179.436 50.9426H179.585C180.791 50.9426 181.799 49.3532 182.177 48.5507L182.712 48.9205C182.817 48.9908 182.948 49.0082 183.067 48.9677C183.185 48.9301 183.277 48.8355 183.311 48.7159C183.406 48.4877 184.012 46.4971 183.311 45.4034C183.121 45.1021 182.827 44.8809 182.484 44.7818C182.342 44.1959 181.982 43.6864 181.476 43.3576C180.986 43.11 180.416 43.0758 179.9 43.2632C179.672 42.6243 179.247 42.0736 178.687 41.6896C178.199 41.3965 177.61 41.3222 177.065 41.485C174.891 42.0436 173.324 46.8118 173.615 48.1415C173.677 48.5786 174.009 48.9289 174.442 49.0149C174.84 49.0701 175.244 48.9837 175.584 48.771C175.456 49.2166 175.594 49.6962 175.939 50.0063C176.718 50.5807 177.474 50.2187 178.128 49.6443C178.133 50.3626 178.717 50.9426 179.436 50.9426ZM179.152 47.9369C179.085 47.8842 179.001 47.8564 178.916 47.8583C178.806 47.8585 178.7 47.904 178.624 47.9841L178.459 48.173C177.608 49.1172 176.955 49.7624 176.403 49.3611C176.222 49.2273 176.443 48.3776 176.844 47.5907C176.938 47.4069 176.876 47.1825 176.703 47.0714C176.525 46.9633 176.294 47.0115 176.175 47.1816C175.838 47.7532 175.257 48.1389 174.6 48.2281C174.544 48.2202 174.442 48.1966 174.387 47.9527C174.174 46.9534 175.584 42.6574 177.262 42.2325C177.601 42.1262 177.969 42.1661 178.278 42.3426C178.771 42.7252 179.121 43.2631 179.27 43.8691C179.301 43.982 179.378 44.0765 179.483 44.1287C179.588 44.1762 179.709 44.1762 179.814 44.1287C180.21 43.8995 180.689 43.8646 181.113 44.0343C181.479 44.3054 181.723 44.7098 181.791 45.1595C181.817 45.3345 181.954 45.4719 182.13 45.4978C182.35 45.5136 182.55 45.6297 182.673 45.8125C182.931 46.496 182.956 47.2457 182.744 47.9448L182.303 47.6379C182.207 47.5691 182.085 47.5487 181.972 47.5829C181.861 47.6144 181.77 47.6917 181.72 47.7953C181.35 48.5821 180.31 50.2423 179.522 50.1558C179.089 50.1086 178.979 49.9355 178.979 49.8804C178.79 49.5106 179.089 48.7552 179.262 48.4484C179.357 48.2741 179.31 48.0568 179.152 47.9369Z" fill="#231F20"/>
<path d="M174.568 38.8491C174.568 38.8491 173.489 36.9764 172.355 38.6209C171.221 40.2653 169.858 43.3418 171.748 43.6723C173.639 44.0028 175.056 40.4778 174.568 38.8491Z" fill="white"/>
<path fill-rule="evenodd" clip-rule="evenodd" d="M171.685 44.0736C171.787 44.0814 171.89 44.0814 171.992 44.0736C172.67 44.0419 173.301 43.7209 173.725 43.1924C174.763 41.9601 175.209 40.3357 174.946 38.7468L174.907 38.6603C174.906 38.6586 174.904 38.6567 174.903 38.6545C174.825 38.5265 174.254 37.5974 173.402 37.5587C172.827 37.5806 172.306 37.9035 172.032 38.4085C171.22 39.573 170 41.9098 170.551 43.2238C170.75 43.6891 171.182 44.0131 171.685 44.0736ZM172.678 38.8255C172.835 38.5973 173.087 38.3219 173.347 38.3219H173.363C173.717 38.3377 174.072 38.7862 174.198 38.9907C174.368 40.3049 173.982 41.6305 173.134 42.6495C172.829 43.0689 172.33 43.3033 171.811 43.271C171.577 43.2534 171.371 43.1083 171.276 42.8934C170.945 42.0987 171.725 40.2024 172.678 38.8255Z" fill="#231F20"/>
<path d="M169.015 56.1434C169.015 56.1434 167.771 50.2029 167.652 49.1407C167.456 47.3389 167.881 44.5221 169.464 44.0815C171.047 43.6409 174.67 43.2238 174.072 44.8132C173.528 46.261 170.354 46.5364 170.354 46.5364C170.354 46.5364 172.544 48.7395 172.213 50.9347" fill="white"/>
<path d="M169.015 56.5368C168.83 56.5377 168.67 56.41 168.629 56.23C168.582 55.986 167.385 50.2501 167.266 49.1486C167.062 47.3074 167.455 44.1995 169.362 43.6408C170.354 43.3654 173.387 42.7989 174.277 43.7667C174.551 44.0722 174.616 44.5122 174.442 44.884C173.993 46.0957 172.181 46.5757 171.134 46.7645C171.795 47.5985 172.859 49.243 172.599 50.9268C172.578 51.0673 172.483 51.186 172.351 51.238C172.218 51.29 172.068 51.2675 171.957 51.179C171.846 51.0904 171.79 50.9493 171.811 50.8088C172.111 48.8338 170.086 46.7645 170.071 46.7488C169.963 46.6386 169.927 46.4774 169.976 46.3317C170.031 46.1894 170.162 46.0912 170.315 46.08C171.102 46.0091 173.324 45.6079 173.694 44.6086C173.78 44.3962 173.694 44.3332 173.694 44.3017C173.276 43.8375 171.094 43.9791 169.566 44.3962C168.283 44.7502 167.857 47.3153 168.046 49.0305C168.164 50.0613 169.393 55.9467 169.401 56.0018C169.424 56.1042 169.404 56.2117 169.347 56.2993C169.289 56.387 169.197 56.4472 169.094 56.466L169.015 56.5368Z" fill="#231F20"/>
<path d="M192.275 33.6167C192.275 33.6167 179.152 32.3184 173.796 35.4185C172.45 36.2213 171.161 37.1151 169.937 38.0937C167.03 40.3676 164.297 42.9484 162.17 44.3883C157.949 47.2208 153.869 47.7952 151.088 43.2867C148.725 39.4392 150.104 37.6138 153.301 34.1911C154.877 32.4994 158.216 29.7062 161.091 26.614C162.791 24.895 164.224 22.9326 165.345 20.7915C167.771 15.6929 167.085 7.87976 167.085 7.87976L192.275 33.6167Z" fill="white"/>
<path fill-rule="evenodd" clip-rule="evenodd" d="M155.011 46.8433C155.424 46.9361 155.847 46.981 156.271 46.977C158.075 46.977 160.123 46.2217 162.407 44.711C163.91 43.6379 165.356 42.4876 166.739 41.2647C167.834 40.3284 169.007 39.3527 170.197 38.4164C171.405 37.4489 172.679 36.5655 174.009 35.7727C178.915 32.9202 190.758 33.8887 192.123 34.0003C192.2 34.0066 192.244 34.0102 192.251 34.0102C192.417 34.023 192.574 33.9322 192.645 33.782C192.715 33.6347 192.687 33.4594 192.574 33.3414L167.369 7.58087C167.254 7.45704 167.073 7.42198 166.92 7.49432C166.77 7.56554 166.679 7.72199 166.692 7.88773C166.699 7.96641 167.353 15.6773 164.99 20.6342C163.891 22.7396 162.481 24.6679 160.808 26.3544C159.146 28.1012 157.374 29.785 155.798 31.2485C154.664 32.2949 153.687 33.2077 153.01 33.9315C149.781 37.3935 148.213 39.3842 150.757 43.5071C151.645 45.1646 153.188 46.3746 155.011 46.8433ZM165.707 20.9726C167.629 16.889 167.637 11.2396 167.542 8.87913L191.282 33.1683C188.021 32.9244 178.191 32.468 173.631 35.1196C172.257 35.9333 170.942 36.8402 169.693 37.8342C168.661 38.641 167.658 39.4829 166.68 40.3045C166.523 40.4363 166.367 40.5676 166.211 40.6982C164.852 41.9014 163.43 43.0308 161.95 44.0815C159.327 45.8361 157.051 46.5207 155.176 46.1115C153.565 45.6771 152.208 44.5943 151.427 43.1216C149.174 39.4472 150.434 37.8106 153.585 34.4666C154.225 33.7815 155.173 32.9006 156.261 31.8902L156.334 31.8228L156.363 31.7961C157.939 30.3314 159.715 28.6804 161.383 26.8895C163.11 25.1425 164.568 23.1483 165.707 20.9726Z" fill="#231F20"/>
<path d="M170.638 37.5666C167.731 39.8406 164.218 42.8541 162.17 44.3805C157.492 47.874 154.53 48.2438 151.474 43.9242C148.323 39.4865 150.104 37.6296 153.301 34.199C154.877 32.5074 158.216 29.7142 161.091 26.6219C161.091 26.6219 161.273 29.84 164.478 33.7663C166.052 35.6811 168.219 37.0181 170.638 37.5666V37.5666Z" fill="#231F20"/>
<path fill-rule="evenodd" clip-rule="evenodd" d="M155.515 47.4176C155.754 47.4561 155.997 47.4745 156.239 47.4726C157.925 47.4726 159.894 46.5914 162.407 44.6952C163.441 43.9257 164.837 42.781 166.335 41.5532C166.445 41.4627 166.556 41.3717 166.668 41.2804C166.837 41.1423 167.007 41.0037 167.177 40.8648C168.432 39.8403 169.703 38.8028 170.882 37.8813C171 37.781 171.055 37.6242 171.024 37.4721C170.982 37.3235 170.86 37.2109 170.709 37.181C168.385 36.6413 166.303 35.3528 164.785 33.5144C161.714 29.7456 161.485 26.5983 161.485 26.5983C161.475 26.4414 161.373 26.3052 161.225 26.2521C161.078 26.1961 160.912 26.2369 160.808 26.3544C159.146 28.1011 157.374 29.7849 155.798 31.2484C155.706 31.3335 155.615 31.4176 155.525 31.5007C154.507 32.4388 153.629 33.248 152.971 33.9708L152.96 33.9823C149.768 37.406 147.839 39.4759 151.151 44.1523C152.553 46.1351 153.939 47.1737 155.515 47.4176ZM156.334 31.8228C157.744 30.5166 159.319 29.0532 160.823 27.4795C161.409 29.8895 162.556 32.1271 164.171 34.0101C165.628 35.7788 167.572 37.0811 169.763 37.7554C168.598 38.6839 167.369 39.691 166.172 40.6745C165.871 40.9206 165.573 41.1654 165.281 41.4058C164.003 42.4568 162.825 43.4254 161.934 44.0657C159.201 46.1036 157.263 46.8904 155.633 46.6386C154.286 46.4262 153.065 45.4899 151.797 43.6959C148.867 39.5448 150.426 37.8667 153.56 34.4937L153.585 34.4665C154.224 33.7814 155.173 32.9005 156.261 31.8901L156.334 31.8228Z" fill="#231F20"/>
<path d="M195.913 32.5073C192.976 35.1432 186.462 32.9479 180.121 27.5897C178.496 26.2191 176.97 24.7362 175.553 23.152C174.16 21.5973 172.876 19.9489 171.709 18.2186C166.983 11.2789 165.51 4.55942 168.472 1.90783C172.126 -1.37322 181.247 2.81267 188.832 11.2631C196.418 19.7136 199.584 29.2184 195.913 32.5073Z" fill="#7C5DFA"/>
<path fill-rule="evenodd" clip-rule="evenodd" d="M167.92 1.33345C168.991 0.423529 170.367 -0.048605 171.772 0.0115924C176.624 0.0115924 183.524 4.22109 189.4 10.7045C192.864 14.4189 195.559 18.78 197.331 23.5376C198.804 27.8651 198.466 31.2484 196.441 33.0581C195.367 33.9869 193.978 34.471 192.558 34.4114C189.037 34.4114 184.311 32.1297 179.585 28.1955C176.318 25.4097 173.441 22.1968 171.032 18.6435C165.967 11.1687 164.715 4.20535 167.92 1.33345ZM188.809 11.271C182.98 4.77973 176.238 0.798414 171.772 0.798414C170.572 0.746048 169.396 1.14151 168.472 1.90783C165.51 4.55942 166.983 11.2789 171.709 18.2186C172.87 19.9512 174.149 21.6021 175.537 23.1599C176.954 24.7441 178.48 26.227 180.105 27.5976C184.65 31.4215 189.242 33.6325 192.574 33.6325C193.783 33.6894 194.969 33.2906 195.898 32.5152C199.584 29.2263 196.402 19.7215 188.809 11.271Z" fill="#231F20"/>
<path d="M185.359 21.0433L180.121 27.5896C178.496 26.219 176.97 24.7362 175.553 23.152C174.16 21.5972 172.876 19.9489 171.709 18.2186L179.286 13.5685L185.359 21.0433Z" fill="white"/>
<ellipse cx="182.308" cy="17.3335" rx="2.24386" ry="4.81741" transform="rotate(-39.4 182.308 17.3335)" fill="#231F20"/>
<path fill-rule="evenodd" clip-rule="evenodd" d="M180.255 18.9898C181.649 20.6893 183.319 21.6886 184.556 21.6886C184.928 21.6944 185.291 21.5753 185.587 21.3502C186.729 20.4061 186.17 17.904 184.311 15.6458C183.562 14.6736 182.614 13.8716 181.531 13.2932C180.475 12.8211 179.578 12.8132 178.987 13.2932C178.396 13.7731 178.231 14.6623 178.522 15.7953C178.871 16.9691 179.461 18.0571 180.255 18.9898ZM179.483 13.899C179.649 13.7759 179.852 13.7147 180.058 13.7259C180.443 13.75 180.819 13.8546 181.161 14.0328C182.152 14.5491 183.024 15.2675 183.721 16.1415C185.375 18.1557 185.776 20.1779 185.099 20.7365C184.422 21.2952 182.515 20.5083 180.861 18.4941C180.138 17.6508 179.601 16.664 179.286 15.5986C179.081 14.796 179.152 14.1744 179.483 13.899Z" fill="#231F20"/>
<path d="M178.916 48.6451C178.846 48.6455 178.778 48.6264 178.719 48.59C178.628 48.5389 178.562 48.4532 178.535 48.3524C178.508 48.2516 178.523 48.1443 178.577 48.0549C179.067 47.2544 179.672 46.5306 180.373 45.9069C180.477 45.797 180.635 45.7565 180.779 45.8025C180.923 45.8486 181.028 45.9731 181.049 46.1229C181.07 46.2727 181.003 46.4212 180.877 46.5049C180.265 47.0803 179.735 47.7369 179.302 48.4562C179.221 48.5884 179.07 48.6619 178.916 48.6451V48.6451Z" fill="#231F20"/>
<path d="M176.498 47.8111H176.435C176.332 47.7902 176.243 47.7296 176.185 47.6425C176.127 47.5555 176.107 47.4491 176.128 47.3468C176.412 46.2239 177.077 45.2341 178.01 44.5457C178.184 44.4154 178.431 44.4506 178.561 44.6244C178.692 44.7982 178.657 45.0448 178.483 45.1752C177.711 45.7498 177.156 46.5676 176.907 47.4963C176.865 47.6867 176.693 47.8194 176.498 47.8111Z" fill="#231F20"/>
<path d="M182.074 48.3696C181.995 48.3702 181.918 48.3454 181.854 48.2988C181.768 48.2386 181.709 48.1465 181.692 48.0431C181.674 47.9397 181.698 47.8335 181.759 47.7481L182.295 46.9612C182.425 46.7898 182.666 46.7485 182.846 46.8668C183.022 46.9947 183.063 47.2386 182.941 47.4176L182.397 48.2044C182.325 48.3109 182.203 48.3731 182.074 48.3696V48.3696Z" fill="#231F20"/>
<path d="M157.216 46.678C157.131 46.6786 157.048 46.6509 156.98 46.5993C153.498 43.9556 151.34 40.7453 150.915 37.5666V37.48C150.864 37.3086 150.935 37.1243 151.088 37.0315C151.176 36.9739 151.284 36.9547 151.387 36.9785C151.489 37.0022 151.578 37.0669 151.632 37.1574C151.678 37.2533 151.705 37.3577 151.71 37.4643C152.112 40.4385 154.152 43.4599 157.476 45.9698C157.613 46.0723 157.668 46.2513 157.612 46.4128C157.556 46.5743 157.403 46.6814 157.232 46.678H157.216Z" fill="white"/>
<path d="M155.27 34.1203C155.161 34.1188 155.058 34.07 154.987 33.9865C154.913 33.914 154.871 33.8148 154.871 33.7112C154.871 33.6075 154.913 33.5083 154.987 33.4358L159.225 29.5017C159.296 29.4256 159.396 29.3824 159.5 29.3824C159.605 29.3824 159.704 29.4256 159.776 29.5017C159.85 29.5742 159.892 29.6734 159.892 29.7771C159.892 29.8807 159.85 29.9799 159.776 30.0524L155.538 33.9865C155.471 34.066 155.374 34.1144 155.27 34.1203Z" fill="white"/>
<path d="M155.853 35.0645C155.744 35.0617 155.639 35.0166 155.562 34.9386C155.411 34.7829 155.411 34.5356 155.562 34.3799L159.8 30.4458C159.953 30.2959 160.198 30.2959 160.351 30.4458C160.426 30.5197 160.467 30.6203 160.467 30.7252C160.467 30.8301 160.426 30.9306 160.351 31.0045L156.121 34.9386C156.05 35.0118 155.955 35.0566 155.853 35.0645V35.0645Z" fill="white"/>
<path d="M156.523 36.1503C156.414 36.1529 156.31 36.1067 156.239 36.0244C156.165 35.9519 156.124 35.8526 156.124 35.749C156.124 35.6454 156.165 35.5461 156.239 35.4736L160.477 31.5395C160.548 31.4634 160.648 31.4203 160.753 31.4203C160.857 31.4203 160.957 31.4634 161.028 31.5395C161.102 31.612 161.144 31.7113 161.144 31.8149C161.144 31.9185 161.102 32.0178 161.028 32.0903L156.791 36.0244C156.723 36.1017 156.626 36.1473 156.523 36.1503V36.1503Z" fill="white"/>
<path d="M86.4216 96.8379L84.4446 140.444C84.4446 140.444 111.422 140.766 126.939 134.291C128.21 130.134 129.747 126.063 131.539 122.103C133.815 117.508 143.59 110.733 140.518 93.1399C140.518 93.1399 163.549 107.696 170.039 101.008C176.529 94.3201 179.775 63.0833 179.775 63.0833L166.29 58.7557L160.162 78.0171C160.162 78.0171 121.299 59.2357 112.241 56.8595C108.878 55.9783 98.4255 61.5332 86.4452 69.2205" fill="#7C5DFA"/>
<path d="M111.406 69.9364C111.406 69.9364 117.652 89.3237 118.723 97.5302C119.795 105.737 119.952 119.302 119.952 119.302C119.952 119.302 129.837 89.0562 128.616 70.377L111.406 69.9364Z" fill="#231F20"/>
<path fill-rule="evenodd" clip-rule="evenodd" d="M119.905 119.656H119.952C120.107 119.659 120.245 119.56 120.291 119.412C120.385 119.136 130.176 88.8831 128.955 70.3534C128.947 70.1727 128.797 70.0306 128.616 70.0308L111.414 69.5902C111.302 69.5904 111.196 69.6435 111.13 69.7334C111.063 69.8233 111.043 69.9394 111.075 70.0466C111.076 70.0478 111.076 70.0497 111.077 70.0524C111.215 70.4814 117.328 89.5469 118.377 97.5853C119.432 105.674 119.605 119.184 119.605 119.317C119.608 119.489 119.735 119.632 119.905 119.656ZM119.07 97.483C118.101 90.0476 112.84 73.304 111.886 70.2983L128.285 70.7311C129.199 86.3338 122.41 110.072 120.259 117.154C120.165 112.991 119.858 103.667 119.07 97.483Z" fill="#231F20"/>
<path d="M79.9391 163.592H154.38L126.962 134.291L84.4682 140.443C84.4682 140.443 79.3799 151.947 79.8604 160.02C79.8919 160.972 79.9155 162.191 79.9391 163.592Z" fill="#231F20"/>
<path fill-rule="evenodd" clip-rule="evenodd" d="M79.9392 163.985H154.381H154.388C154.546 163.986 154.688 163.894 154.752 163.75C154.815 163.607 154.787 163.439 154.68 163.324L127.262 134.023C127.173 133.929 127.044 133.882 126.915 133.897L84.3816 140.05C84.2507 140.073 84.1391 140.158 84.0823 140.278C83.8696 140.758 78.9625 151.963 79.443 160.043C79.4981 161.011 79.5454 162.278 79.5454 163.6C79.5454 163.703 79.5871 163.803 79.6612 163.875C79.7353 163.948 79.8355 163.987 79.9392 163.985ZM153.467 163.198H80.3409C80.3409 162.108 80.2945 161.07 80.2564 160.22C80.253 160.144 80.2496 160.069 80.2464 159.996C79.8053 152.686 84.0665 142.371 84.736 140.798L126.813 134.708L153.467 163.198Z" fill="#231F20"/>
<path d="M126.474 59.511L128.608 70.377C128.608 70.377 128.664 76.6716 121.685 76.0657C117.509 75.6741 113.733 73.4223 111.406 69.9364L108.578 50.9583C108.822 47.5027 108.54 44.0302 107.743 40.6588C115.77 38.9986 120.952 31.7362 120.952 31.7362C120.952 31.7362 124.505 35.3556 125.954 36.4571C127.12 37.2551 128.179 38.1991 129.105 39.2661C130.625 41.1466 131.074 43.7746 131.468 46.0957C131.963 48.8507 132.208 51.6448 132.2 54.4439C132.074 59.7549 126.474 59.511 126.474 59.511Z" fill="white"/>
<path fill-rule="evenodd" clip-rule="evenodd" d="M121.653 76.4671H122.591C124.188 76.5481 125.757 76.0193 126.978 74.9879C128.2 73.7564 128.89 72.0954 128.9 70.3614L126.844 59.9203C128.341 59.8711 129.776 59.3163 130.916 58.3466C131.962 57.3341 132.533 55.9294 132.492 54.4754C132.5 51.6551 132.252 48.8398 131.751 46.0643C131.373 43.7904 130.893 41.0523 129.317 39.0695C128.392 37.9861 127.333 37.0238 126.167 36.2054C125.105 35.41 122.869 33.1852 121.795 32.1176C121.436 31.7596 121.207 31.5317 121.197 31.5317C121.125 31.4523 121.02 31.4114 120.913 31.4216C120.806 31.4304 120.709 31.4849 120.645 31.5711C120.598 31.6419 115.455 38.7784 107.665 40.352C107.571 40.3721 107.489 40.4287 107.436 40.5094C107.382 40.5872 107.365 40.6851 107.389 40.7769C108.125 43.8295 108.406 46.9739 108.224 50.1086C108.192 50.4252 108.192 50.7441 108.224 51.0606C108.232 51.1551 111.052 70.0388 111.052 70.0388C111.06 70.0856 111.076 70.1307 111.099 70.1725C113.476 73.7644 117.36 76.0808 121.653 76.4671ZM121.716 75.7118C117.685 75.3144 114.036 73.1536 111.753 69.8106C108.956 51.0921 108.988 50.8954 108.988 50.8954C108.967 50.6336 108.967 50.3704 108.988 50.1086C109.17 47.0311 108.904 43.9436 108.2 40.9421C115.171 39.3685 119.889 33.7427 121.015 32.2871C121.874 33.184 124.513 35.812 125.741 36.7326C126.868 37.5171 127.892 38.4397 128.79 39.4786C130.241 41.2492 130.663 43.723 131.039 45.9307C131.051 45.9991 131.062 46.0673 131.074 46.1351C131.568 48.8691 131.814 51.6422 131.806 54.4204C131.849 55.671 131.373 56.8838 130.491 57.7722C129.362 58.6895 127.944 59.1774 126.49 59.1492C126.378 59.1402 126.268 59.1874 126.198 59.2751C126.13 59.3618 126.102 59.4731 126.119 59.5819L128.246 70.3771C128.209 71.8888 127.601 73.3305 126.545 74.4135C125.418 75.4521 123.796 75.8849 121.716 75.7118Z" fill="#231F20"/>
<path d="M127.427 64.8615C127.427 64.8615 123.047 65.8922 119.645 63.4924C116.242 61.0926 116.1 58.0476 116.1 58.0476C116.1 58.0476 121.488 60.3373 126.474 59.5111L127.427 64.8615Z" fill="#231F20"/>
<path fill-rule="evenodd" clip-rule="evenodd" d="M119.448 63.7756C121.128 64.8996 123.113 65.4793 125.135 65.4358C125.942 65.447 126.748 65.3678 127.537 65.1997C127.72 65.1603 127.839 64.9825 127.805 64.7984L126.844 59.4481C126.812 59.2623 126.637 59.1363 126.45 59.1648C122.024 59.9017 117.186 58.0715 116.382 57.7671C116.31 57.7399 116.27 57.7249 116.266 57.7249C116.156 57.6776 116.03 57.6926 115.935 57.7643C115.833 57.8283 115.776 57.9435 115.785 58.0632C115.785 58.2364 115.943 61.305 119.448 63.7756ZM119.873 63.2091C118.239 62.1299 117.064 60.4845 116.573 58.5904C118.038 59.1412 122.165 60.4631 126.222 59.9044L127.057 64.586C126.009 64.7827 122.591 65.1289 119.873 63.2091Z" fill="#231F20"/>
<path d="M120.661 40.9814C120.661 40.9814 125.158 45.545 124.497 46.6072C123.835 47.6694 121.393 47.5199 121.393 47.5199" fill="white"/>
<path d="M121.772 47.8739H121.37C121.278 47.8679 121.192 47.8254 121.132 47.756C121.071 47.6866 121.041 47.596 121.047 47.5041C121.06 47.3116 121.224 47.1646 121.417 47.1736C122.039 47.1736 123.78 47.1736 124.206 46.434C124.473 45.9934 122.709 43.5621 120.417 41.2331C120.282 41.0963 120.284 40.8761 120.421 40.7414C120.558 40.6067 120.778 40.6084 120.913 40.7453C122.323 42.1773 125.521 45.6315 124.796 46.8038C124.198 47.7559 122.551 47.8739 121.772 47.8739Z" fill="#231F20"/>
<ellipse cx="126.624" cy="42.3438" rx="0.614338" ry="1.14882" transform="rotate(-13.01 126.624 42.3438)" fill="#231F20"/>
<ellipse cx="116.589" cy="43.3625" rx="0.614338" ry="1.14882" transform="rotate(-13.01 116.589 43.3625)" fill="#231F20"/>
<path d="M111.154 44.6951C110.059 42.9248 107.499 42.6809 105.711 43.3969C104.498 43.8305 103.671 44.9587 103.624 46.2452C103.61 47.0175 103.749 47.7849 104.034 48.5034C104.509 49.8502 105.224 51.1003 106.144 52.1936C106.573 52.7654 107.139 53.2201 107.791 53.5154C108.63 53.8114 109.565 53.5686 110.154 52.9017" fill="white"/>
<path d="M108.531 54.0191C108.235 54.0188 107.941 53.9627 107.665 53.8538C106.958 53.5336 106.341 53.0445 105.869 52.4297C104.924 51.3023 104.187 50.0153 103.695 48.6293C103.394 47.8628 103.247 47.0448 103.262 46.2217C103.324 44.8007 104.238 43.5578 105.577 43.0744C107.547 42.2876 110.303 42.6023 111.461 44.5143C111.544 44.6817 111.485 44.8843 111.326 44.9821C111.167 45.0799 110.959 45.0409 110.847 44.8919C109.862 43.3183 107.539 43.0586 105.845 43.7353C104.764 44.1181 104.023 45.1166 103.971 46.261C103.96 46.9875 104.091 47.709 104.357 48.3854C104.819 49.6917 105.513 50.9043 106.404 51.9655C106.797 52.4879 107.314 52.9044 107.909 53.1772C108.621 53.4272 109.414 53.2183 109.91 52.65C109.994 52.5378 110.137 52.4849 110.274 52.5143C110.412 52.5437 110.52 52.6501 110.552 52.7871C110.583 52.9242 110.532 53.067 110.422 53.1536C109.932 53.6825 109.252 53.9941 108.531 54.0191V54.0191Z" fill="#231F20"/>
<path d="M125.072 48.9362L119.802 49.4476C119.802 49.4476 120.897 57.5833 123.268 57.363C125.639 57.1427 125.647 51.2651 125.072 48.9362Z" fill="white"/>
<path fill-rule="evenodd" clip-rule="evenodd" d="M119.456 49.4948C119.637 50.8875 120.685 57.7171 123.166 57.7171L123.3 57.7092C123.876 57.6421 124.391 57.3182 124.702 56.828C126.009 54.9947 125.859 50.6593 125.411 48.8496C125.368 48.6835 125.211 48.5731 125.04 48.59L119.763 49.1014C119.668 49.108 119.581 49.1572 119.527 49.2352C119.464 49.3062 119.438 49.402 119.456 49.4948ZM123.166 57.0168C121.772 57.0168 120.637 52.7365 120.196 49.7623L124.804 49.3453C125.214 51.3281 125.166 54.9711 124.135 56.4267C123.938 56.7474 123.609 56.9639 123.237 57.0168H123.166Z" fill="#231F20"/>
<path d="M138.257 112.024C138.128 112.023 138.01 111.953 137.947 111.84C137.885 111.727 137.889 111.59 137.958 111.481C138.013 111.378 143.802 101.653 138.265 81.4004C138.219 81.2101 138.33 81.0168 138.517 80.9598C138.609 80.9334 138.708 80.9453 138.791 80.9927C138.874 81.0401 138.934 81.1191 138.958 81.2116C144.59 101.795 138.816 111.457 138.564 111.898C138.49 111.989 138.374 112.036 138.257 112.024Z" fill="#231F20"/>
<path d="M31.136 83.8789L116.171 145.164L201.207 83.8789V184.419H31.136V83.8789V83.8789Z" fill="white"/>
<path fill-rule="evenodd" clip-rule="evenodd" d="M30.7422 184.419C30.7422 184.636 30.9186 184.812 31.1361 184.812H201.207C201.422 184.808 201.596 184.635 201.601 184.419V83.879C201.6 83.7308 201.514 83.5962 201.38 83.5328C201.255 83.4544 201.096 83.4544 200.97 83.5328L116.171 144.645L31.3645 83.5328C31.2392 83.4544 31.0802 83.4544 30.9549 83.5328C30.8226 83.597 30.7397 83.7321 30.7422 83.879V184.419ZM200.852 184.026H31.5063V84.65L115.935 145.479C116.073 145.58 116.261 145.58 116.4 145.479L200.852 84.65V184.026Z" fill="#231F20"/>
<path d="M31.136 184.812C30.9917 184.813 30.8587 184.734 30.7894 184.608C30.6877 184.418 30.7537 184.182 30.9391 184.073L108.744 139.609C108.933 139.503 109.173 139.57 109.279 139.759C109.333 139.848 109.348 139.956 109.322 140.056C109.295 140.157 109.229 140.243 109.138 140.294L31.325 184.757C31.2676 184.791 31.2026 184.81 31.136 184.812Z" fill="#231F20"/>
<path d="M201.207 184.812C201.137 184.81 201.07 184.791 201.01 184.757L123.205 140.294C123.016 140.187 122.949 139.948 123.055 139.759C123.165 139.574 123.401 139.508 123.591 139.609L201.396 184.073C201.585 184.179 201.651 184.419 201.545 184.608C201.479 184.733 201.349 184.812 201.207 184.812V184.812Z" fill="#231F20"/>
<path d="M71.6766 138.303C71.6766 138.303 75.1186 147.257 75.9299 147.745C76.7412 148.233 86.327 152.151 85.6417 153.985C84.9564 155.818 80.6401 153.583 80.6401 153.583C80.6401 153.583 86.8547 160.767 85.2164 162.034C83.578 163.301 78.0644 165.874 75.8511 164.827C73.6378 163.781 62.6028 150.121 60.2634 144.189" fill="white"/>
<path d="M77.1903 165.488C76.6767 165.504 76.166 165.407 75.6937 165.205C73.3308 164.08 62.2248 150.255 59.9012 144.354C59.8506 144.222 59.8743 144.073 59.9635 143.963C60.0528 143.853 60.1939 143.799 60.3337 143.821C60.4736 143.844 60.591 143.939 60.6416 144.071C63.0046 150.121 74.1105 163.584 76.0245 164.528C77.9385 165.472 83.3182 163.08 84.9881 161.782C85.0606 161.715 85.1032 161.621 85.1062 161.522C85.2559 159.949 81.7193 155.488 80.3803 153.898C80.2566 153.755 80.2521 153.545 80.3696 153.397C80.487 153.249 80.6932 153.205 80.8607 153.292C81.6484 153.701 83.9011 154.677 84.9093 154.292C85.0963 154.229 85.2443 154.084 85.311 153.898C85.5 153.387 84.2555 152.104 77.2375 148.855C76.3869 148.461 75.9379 148.249 75.7567 148.131C74.9061 147.588 72.165 140.601 71.3459 138.476C71.3075 138.378 71.3101 138.269 71.353 138.173C71.396 138.077 71.4757 138.002 71.5743 137.965C71.7765 137.89 72.0012 137.992 72.0784 138.193C73.7167 142.45 75.7016 147.084 76.1899 147.478C76.3238 147.564 76.8988 147.832 77.5683 148.139C83.2237 150.751 86.6106 152.679 86.0514 154.174C85.9047 154.571 85.5909 154.885 85.1928 155.031C84.1308 155.248 83.0273 155.121 82.0422 154.669C83.5624 156.565 86.075 159.972 85.9175 161.593C85.8917 161.901 85.7409 162.186 85.5 162.38C84.2004 163.364 80.0101 165.488 77.1903 165.488Z" fill="#231F20"/>
<path d="M86.4453 69.252C66.1868 82.2502 41.5489 101.378 39.4695 105.847C36.1456 112.928 61.004 148.54 61.004 148.54L74.465 140.011L62.1619 113.314L86.4216 96.8301" fill="#7C5DFA"/>
<path d="M70.889 107.806C70.7705 107.809 70.6582 107.753 70.5897 107.657C70.4792 107.493 70.5174 107.271 70.6764 107.153L97.9135 88.1041C97.9912 88.0468 98.0889 88.0237 98.184 88.04C98.2792 88.0564 98.3635 88.1108 98.4176 88.1907C98.472 88.2699 98.4926 88.3676 98.4749 88.462C98.4571 88.5565 98.4025 88.64 98.3231 88.6942L71.0938 107.743C71.0344 107.786 70.9624 107.808 70.889 107.806V107.806Z" fill="#231F20"/>
<path d="M189.234 161.79L222.245 141.608L194.275 153.245L189.234 161.79V161.79Z" fill="#231F20"/>
<path fill-rule="evenodd" clip-rule="evenodd" d="M188.959 162.065C189.031 162.14 189.13 162.183 189.234 162.183C189.309 162.172 189.379 162.142 189.439 162.097L222.473 141.946C222.65 141.84 222.715 141.616 222.622 141.432C222.529 141.248 222.309 141.167 222.119 141.246L194.118 152.883C194.04 152.916 193.976 152.974 193.937 153.048L188.896 161.585C188.804 161.741 188.83 161.939 188.959 162.065ZM190.376 160.61L194.543 153.528L217.7 143.906L190.376 160.61Z" fill="#231F20"/>
<path d="M194.275 153.245L205.066 158.761L222.245 141.608L194.275 153.245V153.245Z" fill="white"/>
<path fill-rule="evenodd" clip-rule="evenodd" d="M204.901 159.075C204.951 159.103 205.008 159.117 205.066 159.115C205.164 159.121 205.259 159.083 205.326 159.013L222.505 141.86C222.629 141.742 222.649 141.552 222.552 141.411C222.457 141.271 222.277 141.215 222.119 141.278L194.133 152.915C194.006 152.973 193.921 153.097 193.913 153.237C193.906 153.377 193.983 153.507 194.11 153.568L204.901 159.075ZM204.995 158.32L195.126 153.284L220.701 142.639L204.995 158.32Z" fill="#231F20"/>
<path d="M222.245 141.608L186.706 150.09L178.625 145.471L222.245 141.608V141.608Z" fill="white"/>
<path fill-rule="evenodd" clip-rule="evenodd" d="M186.501 150.397C186.554 150.428 186.613 150.444 186.674 150.444L186.761 150.436L222.3 141.962C222.482 141.916 222.598 141.738 222.568 141.553C222.536 141.369 222.369 141.239 222.182 141.254L178.562 145.117C178.407 145.134 178.281 145.247 178.247 145.398C178.213 145.549 178.279 145.705 178.412 145.786L186.501 150.397ZM186.73 149.697L179.767 145.723L217.393 142.426L186.73 149.697Z" fill="#231F20"/>
<path d="M186.706 150.09L189.234 161.79L194.275 153.245L222.245 141.608L186.706 150.09V150.09Z" fill="white"/>
<path fill-rule="evenodd" clip-rule="evenodd" d="M189.179 162.152H189.234C189.373 162.163 189.505 162.092 189.573 161.971L194.551 153.536L222.387 141.946C222.574 141.885 222.676 141.685 222.615 141.498C222.554 141.311 222.353 141.209 222.166 141.27L186.627 149.744C186.535 149.764 186.455 149.821 186.405 149.901C186.355 149.98 186.338 150.077 186.359 150.169L188.88 161.877C188.914 162.021 189.032 162.13 189.179 162.152ZM189.392 160.806L187.131 150.35L217.968 142.993L194.134 152.907C194.062 152.939 194.002 152.991 193.96 153.056L189.392 160.806Z" fill="#231F20"/>
<path d="M181.948 163.419C181.775 163.415 181.625 163.299 181.578 163.132C181.531 162.966 181.598 162.789 181.744 162.695L183.059 161.853C183.242 161.733 183.487 161.784 183.606 161.967C183.726 162.15 183.675 162.394 183.492 162.514L182.161 163.364C182.096 163.4 182.023 163.419 181.948 163.419Z" fill="#D1D3D4"/>
<path fill-rule="evenodd" clip-rule="evenodd" d="M22.7571 139.777C22.8199 139.924 22.9663 140.016 23.1255 140.011C23.2466 140.013 23.3623 139.961 23.4406 139.869C24.1495 139.114 24.882 138.382 25.6697 137.69C25.7442 137.616 25.7862 137.515 25.7862 137.41C25.7862 137.305 25.7442 137.205 25.6697 137.131C25.5971 137.057 25.4977 137.015 25.394 137.015C25.2903 137.015 25.1909 137.057 25.1183 137.131C24.3307 137.839 23.5666 138.563 22.842 139.35C22.728 139.461 22.6943 139.631 22.7571 139.777ZM19.1873 144.889C19.0832 144.892 18.9818 144.856 18.9037 144.787C18.8182 144.728 18.76 144.637 18.7422 144.535C18.7244 144.433 18.7485 144.328 18.8092 144.244C19.4078 143.378 20.0537 142.521 20.7153 141.702C20.8529 141.536 21.0989 141.512 21.2667 141.647C21.4356 141.782 21.4637 142.028 21.3297 142.198C20.6759 142.985 20.0458 143.843 19.4551 144.692C19.3933 144.799 19.2859 144.872 19.1636 144.889H19.1873ZM15.7531 150.295C15.8264 150.322 15.9065 150.324 15.9815 150.302L15.9579 150.295C16.0871 150.292 16.2073 150.228 16.2808 150.121C16.7377 149.193 17.2339 148.272 17.7695 147.383C17.8778 147.194 17.8148 146.953 17.6277 146.84C17.5383 146.787 17.4308 146.771 17.3299 146.798C17.229 146.825 17.1432 146.891 17.0921 146.982C16.5486 147.895 16.0366 148.831 15.5719 149.767C15.5258 149.861 15.5189 149.97 15.5529 150.068C15.5869 150.167 15.6589 150.249 15.7531 150.295ZM13.6185 156.125C13.5795 156.132 13.5394 156.132 13.5004 156.125C13.3998 156.094 13.3156 156.024 13.2668 155.931C13.218 155.838 13.2085 155.729 13.2405 155.629C13.5476 154.638 13.91 153.631 14.3117 152.639C14.4068 152.46 14.6224 152.383 14.8099 152.46C14.9974 152.537 15.0954 152.744 15.0363 152.938C14.6504 153.906 14.2959 154.89 13.9887 155.865C13.9365 156.024 13.7859 156.13 13.6185 156.125ZM12.1929 162.254H12.248C12.4508 162.251 12.6178 162.094 12.634 161.892C12.7679 160.877 12.9569 159.847 13.1853 158.832C13.2088 158.729 13.1904 158.622 13.1342 158.533C13.078 158.445 12.9886 158.382 12.886 158.359C12.6735 158.315 12.4642 158.448 12.4134 158.658C12.1771 159.721 11.996 160.775 11.8542 161.806C11.826 162.022 11.9766 162.222 12.1929 162.254ZM176.514 166.637C176.337 166.635 176.183 166.516 176.137 166.346C176.091 166.175 176.165 165.995 176.317 165.905C177.333 165.323 178.246 164.796 179.034 164.331C179.124 164.277 179.232 164.26 179.334 164.285C179.436 164.31 179.524 164.375 179.578 164.465C179.687 164.653 179.628 164.893 179.444 165.008C178.656 165.48 177.734 166.015 176.711 166.582C176.657 166.612 176.598 166.631 176.537 166.637H176.514ZM11.5785 168.155C11.591 168.363 11.7637 168.526 11.9723 168.525H11.996C12.1005 168.519 12.1983 168.472 12.2677 168.393C12.3372 168.315 12.3726 168.213 12.3662 168.108C12.3189 167.51 12.3189 166.896 12.3189 166.291V165.008C12.3232 164.904 12.2857 164.802 12.2148 164.725C12.1439 164.648 12.0453 164.603 11.9408 164.599C11.8358 164.592 11.7327 164.629 11.6554 164.7C11.578 164.772 11.5332 164.871 11.5312 164.977V166.291C11.5312 166.602 11.5431 166.916 11.555 167.229C11.5668 167.54 11.5785 167.849 11.5785 168.155ZM171 169.682C170.855 169.684 170.721 169.605 170.653 169.477C170.553 169.286 170.623 169.049 170.811 168.942C171.699 168.47 172.542 168.011 173.339 167.576L173.576 167.447C173.699 167.36 173.862 167.351 173.994 167.424C174.127 167.497 174.205 167.64 174.197 167.791C174.188 167.941 174.094 168.074 173.954 168.132C173.087 168.612 172.166 169.115 171.181 169.642C171.132 169.667 171.078 169.681 171.024 169.682H171ZM165.053 172.365C165.118 172.501 165.257 172.587 165.408 172.585C165.468 172.584 165.528 172.568 165.581 172.538C166.558 172.05 167.495 171.57 168.393 171.106C168.586 171.006 168.662 170.768 168.562 170.575C168.462 170.381 168.224 170.306 168.031 170.406C167.133 170.878 166.195 171.35 165.226 171.838C165.033 171.936 164.956 172.171 165.053 172.365ZM13.0278 174.686C12.8505 174.685 12.6958 174.566 12.6497 174.395C12.3613 173.372 12.1299 172.335 11.9566 171.287C11.9218 171.07 12.0699 170.865 12.2874 170.831C12.5049 170.796 12.7094 170.944 12.7442 171.161C12.9016 172.19 13.1172 173.209 13.3901 174.214C13.4194 174.314 13.4076 174.422 13.3574 174.513C13.3071 174.605 13.2226 174.673 13.1223 174.702L13.0278 174.686ZM159.414 175.119C159.477 175.257 159.616 175.343 159.768 175.339C159.825 175.34 159.881 175.329 159.933 175.308L162.777 173.938C162.973 173.843 163.054 173.607 162.958 173.411C162.862 173.216 162.626 173.135 162.43 173.23C161.517 173.679 160.571 174.135 159.595 174.592C159.501 174.637 159.429 174.719 159.395 174.818C159.361 174.916 159.367 175.025 159.414 175.119ZM154.042 177.967C153.888 177.965 153.748 177.877 153.679 177.739C153.635 177.643 153.632 177.534 153.671 177.435C153.709 177.337 153.786 177.259 153.884 177.22C154.095 177.124 154.305 177.03 154.514 176.936L154.515 176.935C155.272 176.595 156.015 176.26 156.743 175.921C156.941 175.83 157.176 175.916 157.267 176.114C157.359 176.312 157.272 176.546 157.074 176.637C156.137 177.07 155.184 177.503 154.199 177.936C154.15 177.958 154.096 177.969 154.042 177.967ZM15.4065 180.516C15.2617 180.518 15.1279 180.439 15.0599 180.312C14.5453 179.382 14.0851 178.423 13.6816 177.44C13.6281 177.309 13.6485 177.16 13.7351 177.048C13.8217 176.937 13.9613 176.88 14.1013 176.899C14.2414 176.918 14.3606 177.01 14.4141 177.141C14.8012 178.099 15.2484 179.032 15.7531 179.934C15.8535 180.126 15.7838 180.362 15.5956 180.469C15.5372 180.5 15.4724 180.516 15.4065 180.516ZM142.039 182.678C142.132 182.788 142.275 182.839 142.416 182.814V182.822C142.467 182.822 142.517 182.814 142.566 182.798L145.496 181.602C145.696 181.516 145.791 181.285 145.708 181.083C145.625 180.884 145.397 180.789 145.196 180.87L142.274 182.027C142.133 182.052 142.017 182.151 141.969 182.285C141.92 182.419 141.947 182.569 142.039 182.678ZM18.7462 185.489C18.8229 185.573 18.9314 185.622 19.0455 185.623V185.631C19.1537 185.636 19.2591 185.596 19.3369 185.521C19.488 185.365 19.488 185.118 19.3369 184.962C18.645 184.195 17.9981 183.388 17.3993 182.546C17.3234 182.418 17.1818 182.344 17.0333 182.354C16.8848 182.365 16.7548 182.458 16.6972 182.595C16.6397 182.732 16.6645 182.89 16.7613 183.003C17.3758 183.868 18.0385 184.698 18.7462 185.489ZM130.585 187.118C130.368 187.153 130.163 187.005 130.129 186.787C130.094 186.57 130.242 186.366 130.459 186.331C131.46 185.993 132.452 185.654 133.429 185.308C133.635 185.24 133.859 185.348 133.933 185.552C133.968 185.649 133.963 185.756 133.919 185.849C133.874 185.942 133.794 186.014 133.697 186.048C132.712 186.394 131.72 186.74 130.711 187.078L130.585 187.118ZM23.6848 189.848C23.5995 189.849 23.5164 189.821 23.4485 189.769C22.5899 189.132 21.7629 188.455 20.991 187.755C20.9164 187.681 20.8745 187.581 20.8745 187.476C20.8745 187.371 20.9164 187.27 20.991 187.196C21.0636 187.122 21.1629 187.081 21.2667 187.081C21.3704 187.081 21.4698 187.122 21.5424 187.196C22.3098 187.892 23.1116 188.548 23.9447 189.163C24.1187 189.294 24.154 189.54 24.0235 189.714C23.9385 189.81 23.8126 189.86 23.6848 189.848ZM118.196 190.58C118.241 190.745 118.391 190.86 118.562 190.863H118.558C118.601 190.868 118.644 190.863 118.684 190.847C119.7 190.564 120.708 190.265 121.709 189.966C121.81 189.939 121.896 189.871 121.947 189.779C121.997 189.687 122.008 189.578 121.976 189.478C121.912 189.273 121.694 189.157 121.488 189.219L118.471 190.092C118.262 190.153 118.14 190.369 118.196 190.58ZM28.8203 193.105C28.8763 193.135 28.9383 193.151 29.0015 193.153V193.168C29.219 193.218 29.4358 193.083 29.4859 192.865C29.5359 192.648 29.4001 192.432 29.1826 192.382C28.2453 191.902 27.3316 191.39 26.4731 190.863C26.3849 190.805 26.277 190.786 26.1744 190.81C26.0718 190.834 25.9833 190.898 25.9296 190.989C25.8741 191.078 25.8561 191.185 25.8798 191.287C25.9034 191.388 25.9667 191.477 26.0556 191.532C26.9378 192.09 27.8672 192.618 28.8203 193.105ZM106.341 193.995C106.201 194.01 106.062 193.949 105.979 193.835C105.895 193.721 105.878 193.571 105.935 193.442C105.992 193.312 106.114 193.223 106.255 193.208C107.279 192.972 108.295 192.736 109.311 192.484C109.522 192.435 109.733 192.565 109.783 192.775C109.809 192.877 109.793 192.986 109.738 193.076C109.684 193.166 109.595 193.231 109.492 193.255C108.476 193.499 107.46 193.743 106.428 193.971L106.341 193.995ZM34.8065 195.615C34.7648 195.623 34.7221 195.623 34.6804 195.615C33.6722 195.261 32.6719 194.876 31.7189 194.475C31.6225 194.433 31.5468 194.355 31.5083 194.257C31.4699 194.16 31.4719 194.051 31.5141 193.955C31.6005 193.759 31.8281 193.668 32.026 193.751C32.9634 194.144 33.9479 194.537 34.9404 194.876C35.1579 194.913 35.3042 195.119 35.2673 195.336C35.2303 195.553 35.024 195.7 34.8065 195.663V195.615ZM93.6443 196.15C93.6755 196.339 93.8395 196.476 94.0303 196.473H94.1012L97.2046 195.914C97.4172 195.875 97.5579 195.671 97.5196 195.458C97.5024 195.355 97.4441 195.263 97.358 195.204C97.2719 195.145 97.1653 195.123 97.0628 195.143L93.9673 195.694C93.7539 195.734 93.6108 195.936 93.6443 196.15ZM40.8635 197.378H40.769C39.7214 197.134 38.6896 196.866 37.705 196.591C37.4991 196.527 37.3809 196.311 37.4372 196.103C37.4981 195.895 37.7168 195.775 37.9256 195.836C38.9023 196.111 39.9184 196.379 40.9502 196.623C41.0525 196.645 41.1412 196.708 41.1962 196.797C41.2511 196.886 41.2675 196.993 41.2416 197.095C41.1882 197.265 41.0264 197.378 40.8478 197.37L40.8635 197.378ZM87.4219 197.118C87.4527 197.312 87.6193 197.455 87.8157 197.457L87.8393 197.449L90.99 196.985C91.0936 196.967 91.186 196.909 91.2466 196.824C91.3073 196.738 91.3311 196.632 91.3129 196.528C91.2975 196.425 91.2411 196.333 91.1566 196.272C91.072 196.211 90.9665 196.187 90.8639 196.206L87.7606 196.67C87.6557 196.683 87.5607 196.739 87.4969 196.823C87.4332 196.907 87.4062 197.014 87.4219 197.118ZM81.5696 198.243C81.4289 198.252 81.2944 198.185 81.2167 198.067C81.139 197.95 81.13 197.8 81.1931 197.674C81.2561 197.548 81.3816 197.465 81.5223 197.457C82.5725 197.341 83.6227 197.215 84.673 197.079C84.8905 197.051 85.0897 197.204 85.118 197.421C85.1462 197.638 84.9929 197.838 84.7753 197.866L81.6247 198.236L81.5696 198.243ZM46.9836 198.527H47.023C47.216 198.517 47.3748 198.372 47.4011 198.18C47.4169 198.077 47.3909 197.972 47.3288 197.888C47.2668 197.804 47.1737 197.748 47.0703 197.732C46.0227 197.582 44.983 197.409 43.9827 197.221C43.842 197.194 43.6977 197.244 43.6042 197.353C43.5107 197.461 43.4822 197.611 43.5294 197.746C43.5766 197.881 43.6923 197.981 43.833 198.007C44.8806 198.196 45.9282 198.369 46.9836 198.527ZM75.2999 198.849C75.0823 198.849 74.906 198.673 74.906 198.456C74.906 198.239 75.0823 198.062 75.2999 198.062C76.3474 197.976 77.3871 197.881 78.4505 197.779C78.6657 197.765 78.8551 197.92 78.8837 198.133C78.8947 198.238 78.8634 198.342 78.7968 198.423C78.7302 198.505 78.6339 198.556 78.5292 198.566C77.479 198.666 76.4288 198.76 75.3786 198.849H75.2999ZM50.15 198.92C51.1818 199.03 52.2294 199.125 53.3006 199.203H53.3873C53.6048 199.203 53.7811 199.027 53.7811 198.81C53.7811 198.593 53.6048 198.417 53.3873 198.417C52.2924 198.338 51.2527 198.243 50.2366 198.141C50.1325 198.126 50.0266 198.154 49.9443 198.22C49.8621 198.285 49.811 198.382 49.8034 198.487C49.7804 198.702 49.9351 198.895 50.15 198.92ZM69.0144 199.258C68.8072 199.259 68.6369 199.095 68.6284 198.889C68.6219 198.784 68.6574 198.682 68.7268 198.603C68.7963 198.525 68.8941 198.478 68.9986 198.472C70.0462 198.424 71.0938 198.361 72.1492 198.291C72.2542 198.282 72.3582 198.317 72.4371 198.386C72.5159 198.456 72.5627 198.555 72.5667 198.66C72.5754 198.764 72.5418 198.867 72.4736 198.945C72.4053 199.024 72.3083 199.071 72.2044 199.077C71.1568 199.148 70.1092 199.211 69.0537 199.258H69.0144ZM56.7874 199.399C57.6932 199.434 58.6218 199.471 59.5625 199.471H59.5704C59.6783 199.475 59.7833 199.436 59.8618 199.362C59.9404 199.288 59.9858 199.185 59.9878 199.077C59.9878 198.973 59.9463 198.873 59.8725 198.799C59.7986 198.725 59.6984 198.684 59.594 198.684C58.5149 198.668 57.4673 198.637 56.4434 198.597C56.3389 198.593 56.237 198.631 56.1602 198.701C56.0834 198.772 56.0379 198.871 56.0338 198.975C56.0292 199.191 56.1962 199.372 56.4119 199.384L56.7874 199.399ZM62.3193 199.077C62.3235 199.293 62.4974 199.467 62.7131 199.471H62.721L64.6035 199.432L65.8716 199.392C65.9775 199.39 66.0781 199.346 66.1507 199.269C66.2233 199.192 66.2618 199.089 66.2576 198.983C66.2411 198.769 66.0624 198.605 65.848 198.605L64.5799 198.645L62.7052 198.684C62.4908 198.688 62.3192 198.863 62.3193 199.077ZM99.7959 195.002C99.8361 195.183 99.9958 195.314 100.182 195.316L100.261 195.309L103.348 194.663C103.45 194.643 103.54 194.582 103.596 194.494C103.652 194.407 103.671 194.3 103.648 194.199C103.627 194.097 103.566 194.007 103.479 193.95C103.392 193.892 103.285 193.871 103.183 193.892L100.103 194.537C100.001 194.558 99.9109 194.619 99.8533 194.706C99.7956 194.793 99.775 194.899 99.7959 195.002ZM112.052 192.161C112.078 192.375 112.269 192.528 112.482 192.509C112.519 192.519 112.558 192.518 112.595 192.507C113.619 192.256 114.635 191.993 115.644 191.721C115.784 191.684 115.895 191.575 115.933 191.435C115.972 191.295 115.933 191.145 115.831 191.042C115.729 190.939 115.579 190.897 115.439 190.934L112.398 191.721C112.181 191.747 112.026 191.944 112.052 192.161ZM124.221 188.786C124.268 188.951 124.42 189.064 124.591 189.061V189.069C124.632 189.069 124.672 189.061 124.709 189.045C125.726 188.731 126.726 188.416 127.718 188.093C127.925 188.026 128.038 187.804 127.97 187.598C127.94 187.497 127.87 187.414 127.776 187.366C127.682 187.319 127.573 187.311 127.474 187.346C127.201 187.432 126.929 187.519 126.656 187.607C125.935 187.837 125.212 188.068 124.481 188.29C124.38 188.321 124.296 188.391 124.247 188.484C124.199 188.577 124.189 188.686 124.221 188.786ZM136.524 185.041C136.36 185.036 136.214 184.934 136.154 184.781C136.08 184.577 136.186 184.351 136.39 184.277C137.069 184.032 137.736 183.783 138.4 183.535L138.403 183.534L138.404 183.533C138.718 183.416 139.031 183.3 139.344 183.184C139.538 183.135 139.739 183.239 139.809 183.427C139.88 183.614 139.798 183.824 139.62 183.915C138.643 184.285 137.659 184.647 136.658 185.009C136.618 185.034 136.572 185.048 136.524 185.048V185.041ZM147.898 180.217C147.955 180.367 148.1 180.465 148.26 180.461C148.312 180.462 148.363 180.452 148.41 180.43L151.316 179.202C151.517 179.115 151.608 178.883 151.521 178.683C151.434 178.483 151.202 178.392 151.001 178.478C150.299 178.806 149.583 179.099 148.857 179.396L148.857 179.396C148.607 179.498 148.355 179.601 148.103 179.706C147.907 179.792 147.816 180.02 147.898 180.217Z" fill="#D1D3D4"/>
<path d="M27.8358 135.77C27.7157 135.77 27.6021 135.715 27.5286 135.62C27.3955 135.446 27.4271 135.197 27.5995 135.062C28.0248 134.747 28.4502 134.432 28.8834 134.125C28.9984 134.036 29.1533 134.018 29.2861 134.077C29.4189 134.137 29.5079 134.265 29.5176 134.41C29.5273 134.555 29.456 134.694 29.3323 134.771C28.907 135.07 28.4896 135.376 28.08 135.691C28.0097 135.744 27.9237 135.772 27.8358 135.77Z" fill="#D1D3D4"/>
<path d="M204.475 88.7572C204.375 88.7602 204.277 88.7201 204.208 88.647C204.134 88.5745 204.092 88.4752 204.092 88.3716C204.092 88.268 204.134 88.1687 204.208 88.0962C204.208 88.0962 204.594 87.6871 205.263 86.9475C205.349 86.8212 205.501 86.7562 205.652 86.7808C205.803 86.8053 205.926 86.915 205.967 87.062C206.009 87.2091 205.962 87.3669 205.846 87.4668C205.169 88.2536 204.775 88.6391 204.775 88.6391C204.697 88.7201 204.588 88.7632 204.475 88.7572Z" fill="#D1D3D4"/>
<path fill-rule="evenodd" clip-rule="evenodd" d="M205.303 17.243H205.373V17.2194C205.557 17.2241 205.718 17.0991 205.759 16.9204C205.793 16.7061 205.65 16.504 205.436 16.4641C204.378 16.2831 203.31 16.1622 202.239 16.1022C202.132 16.0885 202.026 16.1214 201.946 16.1922C201.866 16.2631 201.82 16.3651 201.821 16.472C201.815 16.5763 201.85 16.679 201.919 16.7572C201.989 16.8355 202.087 16.8829 202.191 16.889C203.234 16.946 204.273 17.0642 205.303 17.243ZM211.438 19.0921C211.384 19.1029 211.328 19.1029 211.273 19.0921C210.324 18.6606 209.348 18.2926 208.351 17.9905C208.21 17.9498 208.102 17.8371 208.067 17.695C208.032 17.5529 208.075 17.4029 208.181 17.3016C208.287 17.2003 208.438 17.1629 208.579 17.2037C209.612 17.5128 210.622 17.8914 211.604 18.3367C211.699 18.3795 211.772 18.4587 211.808 18.5565C211.844 18.6543 211.838 18.7623 211.793 18.856C211.726 18.9894 211.588 19.0722 211.438 19.0685V19.0921ZM216.479 22.4361C216.553 22.4956 216.645 22.5288 216.739 22.5305V22.5069C216.838 22.5069 216.933 22.4704 217.007 22.4046C217.158 22.2489 217.158 22.0016 217.007 21.8459C216.199 21.1293 215.338 20.4744 214.431 19.8868C214.313 19.8017 214.158 19.7888 214.027 19.8531C213.896 19.9175 213.812 20.0487 213.808 20.1941C213.803 20.3396 213.88 20.4756 214.006 20.5477C214.877 21.1137 215.704 21.745 216.479 22.4361ZM220.788 27.3852C220.651 27.3862 220.524 27.318 220.449 27.2042C219.906 26.3179 219.301 25.4713 218.638 24.6706C218.502 24.503 218.526 24.2573 218.693 24.1199C218.771 24.0517 218.874 24.0182 218.978 24.0271C219.082 24.036 219.178 24.0865 219.244 24.1671C219.928 24.9885 220.554 25.856 221.119 26.7636C221.176 26.8516 221.196 26.9594 221.172 27.0619C221.148 27.1645 221.083 27.2528 220.993 27.3065C220.931 27.344 220.86 27.3631 220.788 27.3616V27.3852ZM223.041 32.8693C223.095 33.0309 223.248 33.139 223.419 33.1368V33.1132C223.46 33.123 223.502 33.1257 223.545 33.1211C223.748 33.0504 223.857 32.8295 223.789 32.6254C223.459 31.6055 223.072 30.6046 222.631 29.6276C222.572 29.4997 222.449 29.413 222.308 29.4002C222.168 29.3874 222.031 29.4503 221.95 29.5654C221.869 29.6805 221.855 29.8302 221.914 29.9581C222.343 30.9071 222.719 31.879 223.041 32.8693ZM224.844 39.3055C224.648 39.3041 224.481 39.161 224.45 38.9672C224.301 37.9128 224.104 36.8742 223.875 35.8828C223.828 35.6656 223.965 35.4507 224.183 35.4029C224.4 35.3551 224.615 35.4925 224.663 35.7097C224.891 36.7169 225.088 37.7791 225.246 38.857C225.274 39.0711 225.128 39.2693 224.915 39.3055H224.844ZM224.962 45.2146C224.967 45.4287 225.142 45.6001 225.356 45.6001H225.364C225.58 45.5916 225.75 45.4144 225.75 45.1988C225.726 44.113 225.671 43.0429 225.593 42.0122C225.584 41.9077 225.535 41.8108 225.455 41.7428C225.375 41.6749 225.272 41.6416 225.167 41.6503C225.063 41.6563 224.966 41.7039 224.898 41.7824C224.83 41.861 224.796 41.9637 224.805 42.0673C224.884 43.0901 224.962 44.1445 224.962 45.2146ZM225.175 51.9419H225.136C224.921 51.9211 224.763 51.7317 224.781 51.517C224.781 51.3285 224.802 51.1426 224.822 50.9563C224.838 50.816 224.853 50.6755 224.86 50.5335C224.86 50.088 224.886 49.6455 224.912 49.2094L224.912 49.2093C224.929 48.9291 224.945 48.6515 224.955 48.3776C224.954 48.2725 224.997 48.172 225.073 48.0992C225.149 48.0265 225.251 47.9877 225.356 47.992C225.572 48.0005 225.742 48.1777 225.742 48.3933C225.742 48.9385 225.71 49.4883 225.678 50.0496L225.678 50.0497C225.667 50.2255 225.657 50.4024 225.648 50.5807C225.648 50.8322 225.622 51.0795 225.595 51.3288C225.586 51.4148 225.577 51.501 225.569 51.5878C225.545 51.7878 225.377 51.9393 225.175 51.9419ZM223.734 58.142H223.852H223.883C224.036 58.1435 224.177 58.0581 224.246 57.9217C224.545 56.828 224.813 55.7816 225.033 54.7744C225.072 54.5624 224.937 54.3574 224.726 54.3102C224.515 54.2663 224.308 54.3994 224.261 54.6092C224.057 55.5927 223.789 56.6156 223.474 57.6463C223.412 57.8546 223.527 58.0744 223.734 58.142ZM221.56 64.0589C221.505 64.0702 221.449 64.0702 221.394 64.0589C221.299 64.0162 221.226 63.9369 221.19 63.8391C221.154 63.7413 221.16 63.6333 221.205 63.5396C221.654 62.5561 222.072 61.5804 222.434 60.6363C222.471 60.5377 222.546 60.4581 222.642 60.4153C222.738 60.3724 222.848 60.3698 222.946 60.4081C223.148 60.4885 223.25 60.7154 223.174 60.9195C222.796 61.8794 222.387 62.8708 221.922 63.8622C221.851 63.9787 221.727 64.0524 221.591 64.0589H221.56ZM218.441 69.6454C218.499 69.6827 218.568 69.7018 218.638 69.7004H218.669C218.797 69.6891 218.912 69.6156 218.976 69.5037C219.52 68.5596 220.04 67.6232 220.512 66.7027C220.612 66.5093 220.536 66.2715 220.343 66.1715C220.149 66.0716 219.911 66.1473 219.811 66.3407C219.346 67.2456 218.834 68.1819 218.299 69.1103C218.245 69.1997 218.23 69.307 218.256 69.4078C218.283 69.5086 218.35 69.5943 218.441 69.6454ZM215.266 75.0823C215.119 75.0869 214.981 75.0069 214.913 74.8763C214.844 74.7458 214.856 74.5874 214.943 74.4686C215.518 73.6109 216.101 72.7297 216.668 71.817C216.786 71.6357 217.026 71.5801 217.212 71.6911C217.394 71.8086 217.447 72.0514 217.33 72.234C216.787 73.1074 216.204 74.0044 215.597 74.9092C215.529 75.0099 215.419 75.0738 215.298 75.0823H215.266ZM211.328 80.173C211.398 80.221 211.48 80.2483 211.564 80.2517L211.596 80.2675C211.712 80.2554 211.816 80.1918 211.879 80.0944C212.502 79.2839 213.132 78.4263 213.778 77.5293C213.904 77.3512 213.862 77.1046 213.683 76.9785C213.505 76.8525 213.258 76.8948 213.132 77.073C212.494 77.9621 211.864 78.8276 211.257 79.6144C211.124 79.7887 211.156 80.0374 211.328 80.173ZM207.366 85.1143C207.439 85.1749 207.531 85.2083 207.626 85.2087C207.756 85.2216 207.883 85.1683 207.965 85.0671C208.579 84.3432 209.264 83.517 209.989 82.6043C210.056 82.5236 210.086 82.4194 210.074 82.3156C210.063 82.2118 210.009 82.1172 209.926 82.0535C209.756 81.9196 209.51 81.9478 209.375 82.1165C209.034 82.5265 208.705 82.9313 208.388 83.3203L208.388 83.3205C208.03 83.7601 207.688 84.1795 207.366 84.5635C207.292 84.636 207.25 84.7353 207.25 84.8389C207.25 84.9425 207.292 85.0418 207.366 85.1143Z" fill="#D1D3D4"/>
<path d="M197.442 17.0149C197.301 17.0261 197.165 16.9615 197.085 16.8454C197.005 16.7293 196.993 16.5793 197.053 16.452C197.114 16.3246 197.238 16.2393 197.379 16.228C197.901 16.1465 198.426 16.094 198.954 16.0707C199.172 16.0576 199.358 16.2232 199.371 16.4405C199.385 16.6577 199.219 16.8445 199.001 16.8575C198.048 16.9126 197.481 16.9991 197.481 16.9991L197.442 17.0149Z" fill="#D1D3D4"/>
<path d="M1.96775 52.0147C1.06545 50.9119 1.22886 49.2863 2.33259 48.3852L25.1849 29.7271C26.287 28.8273 27.9098 28.9904 28.8107 30.0916L38.042 41.3741C38.9443 42.4769 38.7809 44.1026 37.6772 45.0037L14.8248 63.6617C13.7227 64.5616 12.1 64.3985 11.199 63.2973L1.96775 52.0147Z" fill="white"/>
<path fill-rule="evenodd" clip-rule="evenodd" d="M12.8781 64.8693H13.1223C13.6744 64.8704 14.2095 64.6783 14.6346 64.3264L38.3824 44.9391C38.8797 44.5427 39.196 43.9628 39.2598 43.3305C39.3235 42.6981 39.1293 42.0668 38.7211 41.5794L28.7494 29.3915C28.3526 28.8947 27.7721 28.5787 27.139 28.5151C26.506 28.4514 25.8741 28.6454 25.3861 29.0532L1.63829 48.4483C1.14097 48.8447 0.824668 49.4246 0.760922 50.057C0.697177 50.6893 0.891379 51.3206 1.2996 51.808L11.3028 64.0038C11.6933 64.4884 12.2594 64.7994 12.8781 64.8693ZM25.8823 29.659C26.1718 29.4306 26.5296 29.3059 26.8984 29.3049C27.3846 29.3042 27.8439 29.5278 28.1429 29.9108L38.1146 42.0751C38.3898 42.4009 38.5209 42.8244 38.4779 43.2486C38.4348 43.6728 38.2213 44.0613 37.8862 44.3254L14.1541 63.7205C13.8243 63.9873 13.403 64.1144 12.9805 64.0746C12.5569 64.0341 12.1676 63.8241 11.9014 63.4924L1.92972 51.3124C1.66291 50.9797 1.53584 50.5565 1.57528 50.1321C1.60984 49.7125 1.81126 49.3243 2.13451 49.0542L25.8823 29.659Z" fill="#D1D3D4"/>
<path d="M1.18136 50.3681C0.963856 50.3681 0.787533 50.192 0.787533 49.9747C0.776588 49.8711 0.808087 49.7675 0.874857 49.6875C0.941627 49.6074 1.03798 49.5578 1.14198 49.5498L20.9358 47.8346L26.5596 28.8014C26.587 28.7 26.6545 28.6141 26.7467 28.5636C26.8389 28.5131 26.9477 28.5024 27.048 28.5338C27.2536 28.5981 27.3694 28.8154 27.3079 29.0217L21.621 48.3145C21.5787 48.4705 21.4435 48.5836 21.2823 48.5978L1.22074 50.3681H1.18136Z" fill="#D1D3D4"/>
<path d="M22.0542 45.7731C21.8367 45.7731 21.6604 45.597 21.6604 45.3797C21.6604 45.1624 21.8367 44.9863 22.0542 44.9863L38.7998 43.0743C39.0136 43.0556 39.2044 43.208 39.233 43.4205C39.2463 43.525 39.2171 43.6304 39.152 43.7133C39.0869 43.7961 38.9912 43.8493 38.8864 43.8611L22.1251 45.7731H22.0542Z" fill="#D1D3D4"/>
<path d="M13.0987 64.8694C13.0597 64.8768 13.0196 64.8768 12.9806 64.8694C12.8801 64.8388 12.7964 64.7687 12.7489 64.6751C12.7013 64.5816 12.694 64.4727 12.7285 64.3737L17.9349 48.3618C17.9785 48.2213 18.0939 48.1146 18.2376 48.0821C18.3812 48.0496 18.5314 48.0961 18.6314 48.2041C18.7314 48.3121 18.7662 48.4652 18.7226 48.6057L13.5162 64.6176C13.4498 64.7859 13.2788 64.889 13.0987 64.8694Z" fill="#D1D3D4"/>
<path d="M214.901 105.88C215.356 104.832 216.575 104.35 217.623 104.804L239.398 114.235C240.448 114.69 240.93 115.91 240.474 116.96L235.807 127.714C235.352 128.763 234.133 129.244 233.084 128.79L211.31 119.359C210.26 118.904 209.778 117.684 210.233 116.635L214.901 105.88Z" fill="white"/>
<path fill-rule="evenodd" clip-rule="evenodd" d="M233.374 129.326C233.623 129.433 233.891 129.489 234.162 129.491C234.417 129.483 234.668 129.427 234.902 129.326C235.395 129.132 235.789 128.749 235.997 128.264L241.038 116.674C241.243 116.185 241.243 115.636 241.038 115.147C240.844 114.654 240.462 114.257 239.975 114.046L217.346 104.25C216.332 103.816 215.158 104.279 214.715 105.288L209.682 116.894C209.481 117.386 209.481 117.937 209.682 118.428C209.877 118.922 210.263 119.316 210.753 119.522L233.374 129.326ZM215.495 105.603C215.686 105.16 216.122 104.873 216.605 104.871C216.76 104.874 216.913 104.909 217.054 104.974L239.668 114.777C239.966 114.902 240.2 115.144 240.314 115.446C240.436 115.741 240.436 116.072 240.314 116.367L235.273 127.98C235.149 128.276 234.91 128.509 234.611 128.626C234.313 128.747 233.979 128.747 233.682 128.626L211.052 118.822C210.446 118.559 210.164 117.856 210.422 117.248L215.495 105.603Z" fill="#D1D3D4"/>
<path d="M224.742 118.617C224.607 118.62 224.481 118.551 224.411 118.436L215.747 104.761C215.632 104.577 215.688 104.333 215.873 104.218C216.058 104.103 216.301 104.16 216.416 104.344L224.907 117.791L240.542 114.793C240.645 114.77 240.752 114.79 240.84 114.848C240.928 114.906 240.988 114.997 241.007 115.1C241.046 115.315 240.906 115.521 240.692 115.564L224.797 118.617H224.742Z" fill="#D1D3D4"/>
<path d="M234.619 129.42C234.487 129.42 234.363 129.356 234.288 129.247L226.742 118.035C226.624 117.854 226.673 117.612 226.853 117.492C226.939 117.433 227.045 117.411 227.148 117.432C227.25 117.453 227.34 117.514 227.396 117.602L234.942 128.846C235.061 129.029 235.012 129.274 234.832 129.397C234.764 129.423 234.691 129.431 234.619 129.42Z" fill="#D1D3D4"/>
<path d="M210.107 118.822C209.912 118.824 209.744 118.684 209.713 118.491C209.697 118.388 209.723 118.283 209.786 118.198C209.848 118.114 209.941 118.058 210.044 118.043L223.434 115.855C223.575 115.833 223.717 115.887 223.807 115.998C223.897 116.108 223.921 116.258 223.87 116.391C223.819 116.524 223.701 116.62 223.56 116.642L210.17 118.83L210.107 118.822Z" fill="#D1D3D4"/>
<path d="M63.3648 13.6849C63.6277 12.8925 64.483 12.4631 65.2756 12.7255L81.7459 18.1796C82.5391 18.4422 82.969 19.2985 82.7058 20.0916L80.0053 28.2294C79.7424 29.0218 78.8871 29.4513 78.0945 29.1888L61.6242 23.7348C60.831 23.4721 60.4011 22.6159 60.6643 21.8228L63.3648 13.6849Z" fill="white"/>
<path fill-rule="evenodd" clip-rule="evenodd" d="M78.2771 29.659C78.4347 29.7108 78.5995 29.7374 78.7654 29.7377C79.4448 29.7383 80.048 29.3039 80.262 28.6598L83.1684 19.8789C83.4389 19.0578 82.9958 18.1726 82.176 17.8961L65.0602 12.2309C64.2385 11.9666 63.3568 12.4122 63.0832 13.2302L60.1689 22.0111C60.0386 22.4056 60.0698 22.8355 60.2555 23.2071C60.4417 23.5785 60.7673 23.8614 61.1613 23.9939L78.2771 29.659ZM79.1199 28.9116C78.9281 28.9903 78.713 28.9903 78.5213 28.9116L61.4291 23.2858C61.232 23.2223 61.0679 23.0838 60.9723 22.9002C60.8976 22.7079 60.8976 22.4946 60.9723 22.3023L63.8866 13.5213C63.952 13.3274 64.0904 13.1665 64.2726 13.0728C64.458 12.9788 64.6732 12.9618 64.8712 13.0256L81.987 18.6908C82.1825 18.7579 82.3438 18.8992 82.4359 19.0842C82.5147 19.2757 82.5147 19.4906 82.4359 19.6821L79.5137 28.4552C79.4483 28.6535 79.3066 28.8177 79.1199 28.9116Z" fill="#D1D3D4"/>
<path d="M71.3222 22.436C71.1985 22.4348 71.0823 22.3767 71.0071 22.2786L63.8001 12.884C63.6833 12.7119 63.7206 12.4788 63.8853 12.3518C64.05 12.2248 64.2852 12.2476 64.4223 12.404L71.4403 21.5862L82.562 18.4389C82.6634 18.41 82.7721 18.4229 82.8639 18.4746C82.9556 18.5264 83.0228 18.6127 83.0504 18.7143C83.1057 18.9228 82.9827 19.1368 82.7747 19.1943L71.4009 22.4517L71.3222 22.436Z" fill="#D1D3D4"/>
<path d="M79.2145 29.659C79.0941 29.6609 78.9801 29.6054 78.9073 29.5096L72.6849 21.8144C72.5478 21.645 72.5743 21.3966 72.7439 21.2597C72.9136 21.1228 73.1622 21.1493 73.2992 21.3187L79.5217 29.0217C79.6558 29.1914 79.6276 29.4374 79.4587 29.5725C79.3891 29.6275 79.3033 29.6579 79.2145 29.659V29.659Z" fill="#D1D3D4"/>
<path d="M60.6495 23.5218C60.5088 23.5386 60.3698 23.4792 60.2848 23.366C60.1998 23.2527 60.1818 23.1027 60.2375 22.9725C60.2933 22.8424 60.4143 22.7518 60.555 22.735L70.1486 20.2801C70.2499 20.2538 70.3576 20.2689 70.4477 20.3221C70.5379 20.3752 70.6031 20.462 70.6291 20.5633C70.6552 20.6635 70.6399 20.7701 70.5865 20.8589C70.5332 20.9477 70.4463 21.0113 70.3455 21.0354L60.7519 23.4982L60.6495 23.5218Z" fill="#D1D3D4"/>
</svg>
